<svg width="864.51875px" height="121.39999999999999px" xmlns="http://www.w3.org/2000/svg" viewBox="-182.25937499999998 14.300000000000004 864.51875 121.39999999999999" style="background: rgba(0, 0, 0, 0);" preserveAspectRatio="xMidYMid"><defs><filter id="editing-golden" x="-100%" y="-100%" width="300%" height="300%"><feFlood flood-color="#806527" result="flood"></feFlood><feFlood flood-color="#fff694" result="flood-light"></feFlood><feComposite operator="in" in="flood" in2="SourceAlpha" result="flood-comp"></feComposite><feGaussianBlur in="flood-comp" stdDeviation="3" result="blur"></feGaussianBlur><feOffset in="blur" dy="3" result="offset-blur"></feOffset><feComponentTransfer in="offset-blur" result="comp-blur"><feFuncA type="linear" slope="0.7" intercept="-0.1"></feFuncA></feComponentTransfer><feSpecularLighting surfaceScale="200" specularConstant="20" specularExponent="1" lighting-color="#fff" in="blur" result="specular"><fePointLight x="-250" y="-250" z="3500"></fePointLight></feSpecularLighting><feComponentTransfer in="specular" result="inspecular"><feFuncA type="linear" slope="-1" intercept="1"></feFuncA></feComponentTransfer><feComposite operator="in" in="flood-light" in2="inspecular" result="inspecular2"></feComposite><feComposite operator="in" in="inspecular2" in2="SourceAlpha" result="light"></feComposite><feMerge><feMergeNode in="comp-blur"></feMergeNode><feMergeNode in="SourceGraphic"></feMergeNode><feMergeNode in="light"></feMergeNode></feMerge></filter></defs><g filter="url(#editing-golden)"><g transform="translate(-59.92002761363983, 104.76000213623047)"><path d="M26.05-29.57L26.05-29.57L26.05-29.57Q27.01-31.49 27.01-33.28L27.01-33.28L27.01-33.28Q27.01-35.07 26.82-36.06L26.82-36.06L26.82-36.06Q26.62-37.06 26.18-37.82L26.18-37.82L26.18-37.82Q25.22-39.49 23.30-39.49L23.30-39.49L23.30-39.49Q20.93-39.49 19.01-37.76L19.01-37.76L19.01-37.76Q16.96-35.97 16.96-33.15L16.96-33.15L16.96-33.15Q16.96-31.36 18.21-29.98L18.21-29.98L18.21-29.98Q19.46-28.61 21.38-27.33L21.38-27.33L21.38-27.33Q23.30-26.05 25.47-24.77L25.47-24.77L25.47-24.77Q27.65-23.49 29.57-21.95L29.57-21.95L29.57-21.95Q33.98-18.43 33.98-13.70L33.98-13.70L33.98-13.70Q33.98-10.50 32.29-7.78L32.29-7.78L32.29-7.78Q30.59-5.06 27.78-3.07L27.78-3.07L27.78-3.07Q21.63 1.28 13.50 1.28L13.50 1.28L13.50 1.28Q6.91 1.28 3.52-0.86L3.52-0.86L3.52-0.86Q0.13-3.01 0.13-6.27L0.13-6.27L0.13-6.27Q0.13-12.10 4.67-13.57L4.67-13.57L4.67-13.57Q5.95-14.02 7.90-14.02L7.90-14.02L7.90-14.02Q9.86-14.02 12.10-13.18L12.10-13.18L12.10-13.18Q11.07-10.56 11.07-8.19L11.07-8.19L11.07-8.19Q11.07-3.07 14.72-3.07L14.72-3.07L14.72-3.07Q17.09-3.07 19.04-4.80L19.04-4.80L19.04-4.80Q20.99-6.53 20.99-8.48L20.99-8.48L20.99-8.48Q20.99-10.43 19.74-11.84L19.74-11.84L19.74-11.84Q18.50-13.25 16.64-14.37L16.64-14.37L16.64-14.37Q14.78-15.49 12.64-16.58L12.64-16.58L12.64-16.58Q10.50-17.66 8.64-19.20L8.64-19.20L8.64-19.20Q4.29-22.72 4.29-28.35L4.29-28.35L4.29-28.35Q4.29-32 6.08-34.85L6.08-34.85L6.08-34.85Q7.87-37.70 10.75-39.62L10.75-39.62L10.75-39.62Q16.51-43.52 23.58-43.52L23.58-43.52L23.58-43.52Q30.66-43.52 34.08-41.41L34.08-41.41L34.08-41.41Q37.50-39.30 37.50-35.71L37.50-35.71L37.50-35.71Q37.50-32.58 35.07-30.59L35.07-30.59L35.07-30.59Q32.96-28.93 30.40-28.93L30.40-28.93L30.40-28.93Q27.84-28.93 26.05-29.57ZM39.87-6.40L39.87-6.40L39.87-6.40Q39.87-8.13 40.77-12.48L40.77-12.48L44.16-29.76L40.38-29.76L40.64-31.68L40.64-31.68Q48.32-33.98 55.74-39.62L55.74-39.62L58.82-39.62L57.28-32.64L62.27-32.64L61.70-29.76L56.77-29.76L53.50-12.48L53.50-12.48Q52.67-8.51 52.67-7.17L52.67-7.17L52.67-7.17Q52.67-4.10 55.36-3.46L55.36-3.46L55.36-3.46Q54.72-1.28 52.42 0L52.42 0L52.42 0Q50.11 1.28 46.85 1.28L46.85 1.28L46.85 1.28Q43.58 1.28 41.73-0.77L41.73-0.77L41.73-0.77Q39.87-2.82 39.87-6.40ZM64.48-1.92L64.48-1.92L64.48-1.92Q62.98-3.58 62.30-6.21L62.30-6.21L62.30-6.21Q61.63-8.83 61.63-13.12L61.63-13.12L61.63-13.12Q61.63-17.41 63.10-21.31L63.10-21.31L63.10-21.31Q64.58-25.22 67.26-28.03L67.26-28.03L67.26-28.03Q72.77-33.92 81.86-33.92L81.86-33.92L81.86-33.92Q85.12-33.92 87.49-32.83L87.49-32.83L98.43-33.92L93.70-8.96L93.70-8.96Q93.50-8.19 93.50-6.78L93.50-6.78L93.50-6.78Q93.50-5.38 94.37-4.48L94.37-4.48L94.37-4.48Q95.23-3.58 96.51-3.46L96.51-3.46L96.51-3.46Q95.87-1.28 93.54 0L93.54 0L93.54 0Q91.20 1.28 88.58 1.28L88.58 1.28L88.58 1.28Q85.95 1.28 84.19 0.29L84.19 0.29L84.19 0.29Q82.43-0.70 81.92-2.37L81.92-2.37L81.92-2.37Q80.90-0.77 78.72 0.26L78.72 0.26L78.72 0.26Q76.54 1.28 73.63 1.28L73.63 1.28L73.63 1.28Q70.72 1.28 68.35 0.51L68.35 0.51L68.35 0.51Q65.98-0.26 64.48-1.92ZM77.98-27.90L77.98-27.90L77.98-27.90Q77.25-26.75 76.61-24.80L76.61-24.80L76.61-24.80Q75.97-22.85 74.91-17.63L74.91-17.63L74.91-17.63Q73.86-12.42 73.86-8.70L73.86-8.70L73.86-8.70Q73.86-4.99 74.43-3.90L74.43-3.90L74.43-3.90Q75.01-2.82 76.03-2.82L76.03-2.82L76.03-2.82Q78.08-2.82 79.58-4.77L79.58-4.77L79.58-4.77Q81.09-6.72 81.66-10.18L81.66-10.18L85.06-28.93L85.06-28.93Q83.71-30.08 82.14-30.08L82.14-30.08L82.14-30.08Q80.58-30.08 79.65-29.57L79.65-29.57L79.65-29.57Q78.72-29.06 77.98-27.90ZM121.92-17.98L121.92-17.98L121.92-17.98Q124.22-22.08 124.22-26.24L124.22-26.24L124.22-26.24Q124.22-28.99 122.24-28.99L122.24-28.99L122.24-28.99Q120.70-28.99 119.10-26.37L119.10-26.37L119.10-26.37Q117.44-23.74 116.93-20.35L116.93-20.35L113.60 0L100.35 1.28L106.88-32.64L117.44-33.92L116.29-27.46L116.29-27.46Q119.42-33.92 126.46-33.92L126.46-33.92L126.46-33.92Q130.18-33.92 132.19-32L132.19-32L132.19-32Q134.21-30.08 134.21-26.14L134.21-26.14L134.21-26.14Q134.21-22.21 131.62-19.71L131.62-19.71L131.62-19.71Q129.02-17.22 124.61-17.22L124.61-17.22L124.61-17.22Q122.69-17.22 121.92-17.98ZM136.26-6.40L136.26-6.40L136.26-6.40Q136.26-8.13 137.15-12.48L137.15-12.48L140.54-29.76L136.77-29.76L137.02-31.68L137.02-31.68Q144.70-33.98 152.13-39.62L152.13-39.62L155.20-39.62L153.66-32.64L158.66-32.64L158.08-29.76L153.15-29.76L149.89-12.48L149.89-12.48Q149.06-8.51 149.06-7.17L149.06-7.17L149.06-7.17Q149.06-4.10 151.74-3.46L151.74-3.46L151.74-3.46Q151.10-1.28 148.80 0L148.80 0L148.80 0Q146.50 1.28 143.23 1.28L143.23 1.28L143.23 1.28Q139.97 1.28 138.11-0.77L138.11-0.77L138.11-0.77Q136.26-2.82 136.26-6.40ZM176.96 0L169.60 0L181.18-42.24L194.56-42.24L197.50-18.11L209.41-42.24L220.61-42.24L221.76-10.62L221.76-10.62Q222.02-4.35 225.09-2.43L225.09-2.43L225.09-2.43Q224.38-1.15 222.34 0.06L222.34 0.06L222.34 0.06Q220.29 1.28 217.57 1.28L217.57 1.28L217.57 1.28Q214.85 1.28 213.25 0.51L213.25 0.51L213.25 0.51Q211.65-0.26 210.75-1.54L210.75-1.54L210.75-1.54Q209.15-3.84 209.15-8.26L209.15-8.26L209.15-28.03L196.54 0L188.61 0L184.13-28.74L176.96 0ZM230.62-1.92L230.62-1.92L230.62-1.92Q229.12-3.58 228.45-6.21L228.45-6.21L228.45-6.21Q227.78-8.83 227.78-13.12L227.78-13.12L227.78-13.12Q227.78-17.41 229.25-21.31L229.25-21.31L229.25-21.31Q230.72-25.22 233.41-28.03L233.41-28.03L233.41-28.03Q238.91-33.92 248.00-33.92L248.00-33.92L248.00-33.92Q251.26-33.92 253.63-32.83L253.63-32.83L264.58-33.92L259.84-8.96L259.84-8.96Q259.65-8.19 259.65-6.78L259.65-6.78L259.65-6.78Q259.65-5.38 260.51-4.48L260.51-4.48L260.51-4.48Q261.38-3.58 262.66-3.46L262.66-3.46L262.66-3.46Q262.02-1.28 259.68 0L259.68 0L259.68 0Q257.34 1.28 254.72 1.28L254.72 1.28L254.72 1.28Q252.10 1.28 250.34 0.29L250.34 0.29L250.34 0.29Q248.58-0.70 248.06-2.37L248.06-2.37L248.06-2.37Q247.04-0.77 244.86 0.26L244.86 0.26L244.86 0.26Q242.69 1.28 239.78 1.28L239.78 1.28L239.78 1.28Q236.86 1.28 234.50 0.51L234.50 0.51L234.50 0.51Q232.13-0.26 230.62-1.92ZM244.13-27.90L244.13-27.90L244.13-27.90Q243.39-26.75 242.75-24.80L242.75-24.80L242.75-24.80Q242.11-22.85 241.06-17.63L241.06-17.63L241.06-17.63Q240.00-12.42 240.00-8.70L240.00-8.70L240.00-8.70Q240.00-4.99 240.58-3.90L240.58-3.90L240.58-3.90Q241.15-2.82 242.18-2.82L242.18-2.82L242.18-2.82Q244.22-2.82 245.73-4.77L245.73-4.77L245.73-4.77Q247.23-6.72 247.81-10.18L247.81-10.18L251.20-28.93L251.20-28.93Q249.86-30.08 248.29-30.08L248.29-30.08L248.29-30.08Q246.72-30.08 245.79-29.57L245.79-29.57L245.79-29.57Q244.86-29.06 244.13-27.90ZM284.54-30.34L284.54-30.34L284.54-30.34Q288.00-33.92 295.30-33.92L295.30-33.92L295.30-33.92Q299.33-33.92 301.54-31.78L301.54-31.78L301.54-31.78Q303.74-29.63 303.74-25.70L303.74-25.70L303.74-25.70Q303.74-21.76 301.54-18.98L301.54-18.98L301.54-18.98Q299.33-16.19 295.23-15.04L295.23-15.04L295.23-15.04Q295.55-13.76 296.00-12.42L296.00-12.42L296.90-9.86L296.90-9.86Q298.11-6.59 299.07-5.44L299.07-5.44L299.07-5.44Q300.03-4.29 301.31-3.90L301.31-3.90L301.31-3.90Q300.61-1.28 298.05 0.13L298.05 0.13L298.05 0.13Q296.00 1.28 293.18 1.28L293.18 1.28L293.18 1.28Q284.93 1.28 283.84-11.46L283.84-11.46L283.84-11.46Q283.65-13.25 283.65-15.04L283.65-15.04L283.65-15.04Q286.85-15.94 289.09-18.94L289.09-18.94L289.09-18.94Q291.33-21.95 291.33-25.47L291.33-25.47L291.33-25.47Q291.33-28.99 288.83-28.99L288.83-28.99L288.83-28.99Q287.04-28.99 285.63-27.01L285.63-27.01L285.63-27.01Q284.22-25.02 283.58-21.63L283.58-21.63L279.36 0L266.43 1.28L275.39-44.80L288.26-46.08L286.78-38.46L286.78-38.46Q285.82-33.09 284.54-30.34ZM322.05-3.52L322.05-3.52L322.05-3.52Q320.06 1.28 313.73 1.28L313.73 1.28L313.73 1.28Q310.46 1.28 308.42-0.96L308.42-0.96L308.42-0.96Q306.69-2.94 306.69-4.93L306.69-4.93L306.69-4.93Q306.69-10.11 309.06-20.22L309.06-20.22L311.42-32.64L324.42-33.92L320.51-13.70L320.51-13.70Q319.42-8.96 319.42-7.30L319.42-7.30L319.42-7.30Q319.42-3.65 322.05-3.52ZM312.58-41.54L312.58-41.54L312.58-41.54Q312.58-44.03 314.66-45.38L314.66-45.38L314.66-45.38Q316.74-46.72 319.74-46.72L319.74-46.72L319.74-46.72Q322.75-46.72 324.58-45.38L324.58-45.38L324.58-45.38Q326.40-44.03 326.40-41.54L326.40-41.54L326.40-41.54Q326.40-39.04 324.38-37.76L324.38-37.76L324.38-37.76Q322.37-36.48 319.36-36.48L319.36-36.48L319.36-36.48Q316.35-36.48 314.46-37.76L314.46-37.76L314.46-37.76Q312.58-39.04 312.58-41.54ZM354.56 1.28L354.56 1.28L354.56 1.28Q346.82 1.28 346.82-4.74L346.82-4.74L346.82-4.74Q346.88-6.40 347.39-9.22L347.39-9.22L348.54-15.10L348.54-15.10Q350.27-23.42 350.27-25.28L350.27-25.28L350.27-25.28Q350.27-28.99 348.10-28.99L348.10-28.99L348.10-28.99Q344.45-28.99 342.53-19.46L342.53-19.46L338.75 0L325.89 1.28L332.54-32.70L343.04-33.92L342.02-27.65L342.02-27.65Q345.02-33.92 354.24-33.92L354.24-33.92L354.24-33.92Q358.72-33.92 360.61-32.03L360.61-32.03L360.61-32.03Q362.50-30.14 362.50-25.92L362.50-25.92L362.50-25.92Q362.50-21.95 360.45-12.67L360.45-12.67L360.45-12.67Q359.49-8.51 359.49-6.94L359.49-6.94L359.49-6.94Q359.49-5.38 360.35-4.48L360.35-4.48L360.35-4.48Q361.22-3.58 362.50-3.46L362.50-3.46L362.50-3.46Q361.86-1.28 359.65 0L359.65 0L359.65 0Q357.44 1.28 354.56 1.28ZM372.16-26.75L372.16-26.75L372.16-26.75Q374.34-29.82 377.63-31.87L377.63-31.87L377.63-31.87Q380.93-33.92 384.96-33.92L384.96-33.92L384.96-33.92Q388.99-33.92 390.91-32.64L390.91-32.64L403.46-33.92L399.10-9.34L399.10-9.34Q396.86 3.20 392.13 8.13L392.13 8.13L392.13 8.13Q387.58 12.80 378.75 12.80L378.75 12.80L378.75 12.80Q372.03 12.80 368.19 10.69L368.19 10.69L368.19 10.69Q364.35 8.58 364.35 5.06L364.35 5.06L364.35 5.06Q364.35 2.43 366.34 0.93L366.34 0.93L366.34 0.93Q368.32-0.58 371.39-0.58L371.39-0.58L371.39-0.58Q374.08-0.58 376.13 0.64L376.13 0.64L376.13 0.64Q377.34 1.28 377.92 2.18L377.92 2.18L377.92 2.18Q376.45 3.46 376.45 5.57L376.45 5.57L376.45 5.57Q376.45 8.32 379.01 8.32L379.01 8.32L379.01 8.32Q383.30 8.32 385.73-1.79L385.73-1.79L385.73-1.79Q386.43-4.54 387.01-7.30L387.01-7.30L387.01-7.30Q384.13-3.78 377.60-3.78L377.60-3.78L377.60-3.78Q373.06-3.78 370.43-5.95L370.43-5.95L370.43-5.95Q367.81-8.13 367.81-13.25L367.81-13.25L367.81-13.25Q367.81-16.45 368.90-20.06L368.90-20.06L368.90-20.06Q369.98-23.68 372.16-26.75ZM380.48-13.06L380.48-13.06L380.48-13.06Q380.48-8.70 382.72-8.70L382.72-8.70L382.72-8.70Q384.26-8.70 385.73-10.37L385.73-10.37L385.73-10.37Q386.88-11.71 387.33-13.70L387.33-13.70L390.59-30.14L390.59-30.14Q390.27-30.21 389.95-30.34L389.95-30.34L389.95-30.34Q389.31-30.59 388.48-30.59L388.48-30.59L388.48-30.59Q384.58-30.59 382.27-24.19L382.27-24.19L382.27-24.19Q380.48-19.20 380.48-13.06ZM420.74-39.68L420.74-39.68L420.74-39.68Q422.59-43.52 427.74-43.52L427.74-43.52L427.74-43.52Q432.90-43.52 435.30-40.54L435.30-40.54L435.30-40.54Q437.70-37.57 437.70-30.72L437.70-30.72L437.70-7.87L453.25-42.18L460.86-42.18L440.96 0L425.98 0L424.06-30.72L424.06-30.72Q423.87-34.11 422.94-36.42L422.94-36.42L422.94-36.42Q422.02-38.72 420.74-39.68ZM473.66-3.52L473.66-3.52L473.66-3.52Q471.68 1.28 465.34 1.28L465.34 1.28L465.34 1.28Q462.08 1.28 460.03-0.96L460.03-0.96L460.03-0.96Q458.30-2.94 458.30-4.93L458.30-4.93L458.30-4.93Q458.30-10.11 460.67-20.22L460.67-20.22L463.04-32.64L476.03-33.92L472.13-13.70L472.13-13.70Q471.04-8.96 471.04-7.30L471.04-7.30L471.04-7.30Q471.04-3.65 473.66-3.52ZM464.19-41.54L464.19-41.54L464.19-41.54Q464.19-44.03 466.27-45.38L466.27-45.38L466.27-45.38Q468.35-46.72 471.36-46.72L471.36-46.72L471.36-46.72Q474.37-46.72 476.19-45.38L476.19-45.38L476.19-45.38Q478.02-44.03 478.02-41.54L478.02-41.54L478.02-41.54Q478.02-39.04 476-37.76L476-37.76L476-37.76Q473.98-36.48 470.98-36.48L470.98-36.48L470.98-36.48Q467.97-36.48 466.08-37.76L466.08-37.76L466.08-37.76Q464.19-39.04 464.19-41.54ZM499.26-33.92L499.26-33.92L499.26-33.92Q501.57-33.92 503.36-33.41L503.36-33.41L503.36-33.41Q503.42-33.66 503.55-34.37L503.55-34.37L503.87-36.35L503.87-36.35Q504.13-37.63 504.51-39.74L504.51-39.74L505.54-44.80L518.27-46.08L511.17-8.96L511.17-8.96Q511.10-8.58 511.10-7.94L511.10-7.94L511.10-6.91L511.10-6.91Q511.10-5.50 511.81-4.45L511.81-4.45L511.81-4.45Q512.51-3.39 513.66-3.39L513.66-3.39L513.66-3.39Q512.38-0.38 508.48 0.90L508.48 0.90L508.48 0.90Q507.14 1.28 505.25 1.28L505.25 1.28L505.25 1.28Q503.36 1.28 501.63 0.29L501.63 0.29L501.63 0.29Q499.90-0.70 499.39-2.37L499.39-2.37L499.39-2.37Q498.37-0.70 496.32 0.29L496.32 0.29L496.32 0.29Q494.27 1.28 491.30 1.28L491.30 1.28L491.30 1.28Q488.32 1.28 485.86 0.51L485.86 0.51L485.86 0.51Q483.39-0.26 481.86-1.92L481.86-1.92L481.86-1.92Q479.04-5.18 479.04-12.61L479.04-12.61L479.04-12.61Q479.04-22.21 484.67-28.03L484.67-28.03L484.67-28.03Q490.30-33.92 499.26-33.92ZM498.82-30.08L498.82-30.08L498.82-30.08Q496.45-30.08 495.17-27.52L495.17-27.52L495.17-27.52Q493.89-24.96 492.58-18.62L492.58-18.62L492.58-18.62Q491.26-12.29 491.26-6.59L491.26-6.59L491.26-6.59Q491.26-2.69 493.57-2.69L493.57-2.69L493.57-2.69Q495.62-2.69 497.06-4.74L497.06-4.74L497.06-4.74Q498.50-6.78 499.07-10.18L499.07-10.18L502.53-28.93L502.53-28.93Q501.18-30.08 498.82-30.08ZM545.02-10.82L545.02-10.82L545.02-10.82Q546.62-9.73 546.62-7.33L546.62-7.33L546.62-7.33Q546.62-4.93 545.41-3.39L545.41-3.39L545.41-3.39Q544.19-1.86 542.21-0.83L542.21-0.83L542.21-0.83Q538.11 1.28 533.70 1.28L533.70 1.28L533.70 1.28Q529.28 1.28 526.69 0.32L526.69 0.32L526.69 0.32Q524.10-0.64 522.37-2.43L522.37-2.43L522.37-2.43Q518.98-5.82 518.98-12.03L518.98-12.03L518.98-12.03Q518.98-21.70 524.22-27.58L524.22-27.58L524.22-27.58Q529.86-33.92 539.65-33.92L539.65-33.92L539.65-33.92Q545.73-33.92 548.74-31.36L548.74-31.36L548.74-31.36Q550.98-29.44 550.98-26.30L550.98-26.30L550.98-26.30Q550.98-15.04 531.52-15.04L531.52-15.04L531.52-15.04Q531.26-13.38 531.26-11.97L531.26-11.97L531.26-11.97Q531.26-9.02 532.58-7.90L532.58-7.90L532.58-7.90Q533.89-6.78 536.32-6.78L536.32-6.78L536.32-6.78Q538.75-6.78 541.34-7.90L541.34-7.90L541.34-7.90Q543.94-9.02 545.02-10.82ZM531.97-17.79L531.97-17.79L531.97-17.79Q536.51-17.79 539.14-20.61L539.14-20.61L539.14-20.61Q541.76-23.30 541.76-27.58L541.76-27.58L541.76-27.58Q541.76-29.06 541.22-29.86L541.22-29.86L541.22-29.86Q540.67-30.66 539.58-30.66L539.58-30.66L539.58-30.66Q538.50-30.66 537.57-30.24L537.57-30.24L537.57-30.24Q536.64-29.82 535.68-28.42L535.68-28.42L535.68-28.42Q533.31-25.22 531.97-17.79ZM567.10 1.28L567.10 1.28L567.10 1.28Q553.02 1.28 553.02-11.97L553.02-11.97L553.02-11.97Q553.02-21.38 558.21-27.46L558.21-27.46L558.21-27.46Q563.71-33.92 573.25-33.92L573.25-33.92L573.25-33.92Q580.16-33.92 583.68-30.72L583.68-30.72L583.68-30.72Q587.20-27.52 587.20-20.80L587.20-20.80L587.20-20.80Q587.20-10.56 581.70-4.61L581.70-4.61L581.70-4.61Q576.32 1.28 567.10 1.28ZM568.77-26.56L568.77-26.56L568.77-26.56Q568.00-24.83 567.39-22.24L567.39-22.24L567.39-22.24Q566.78-19.65 566.02-15.55L566.02-15.55L566.02-15.55Q565.25-11.46 565.25-6.40L565.25-6.40L565.25-6.40Q565.25-4.74 565.79-3.65L565.79-3.65L565.79-3.65Q566.34-2.56 567.81-2.56L567.81-2.56L567.81-2.56Q569.28-2.56 570.21-3.26L570.21-3.26L570.21-3.26Q571.14-3.97 571.84-5.63L571.84-5.63L571.84-5.63Q573.12-8.58 574.14-14.05L574.14-14.05L574.14-14.05Q575.17-19.52 575.26-21.89L575.26-21.89L575.26-21.89Q575.36-24.26 575.36-26.02L575.36-26.02L575.36-26.02Q575.36-27.78 574.85-28.93L574.85-28.93L574.85-28.93Q574.34-30.08 572.90-30.08L572.90-30.08L572.90-30.08Q571.46-30.08 570.50-29.18L570.50-29.18L570.50-29.18Q569.54-28.29 568.77-26.56ZM610.11-22.46L610.11-22.46L610.11-22.46Q611.01-24.83 611.01-26.88L611.01-26.88L611.01-26.88Q611.01-30.66 607.94-30.66L607.94-30.66L607.94-30.66Q606.34-30.66 605.02-29.22L605.02-29.22L605.02-29.22Q603.71-27.78 603.71-25.98L603.71-25.98L603.71-25.98Q603.71-24.70 604.74-23.68L604.74-23.68L604.74-23.68Q606.21-22.27 609.98-19.97L609.98-19.97L609.98-19.97Q613.76-17.66 615.20-15.78L615.20-15.78L615.20-15.78Q616.64-13.89 616.64-11.30L616.64-11.30L616.64-11.30Q616.64-8.70 615.39-6.34L615.39-6.34L615.39-6.34Q614.14-3.97 611.90-2.30L611.90-2.30L611.90-2.30Q607.10 1.28 599.42 1.28L599.42 1.28L599.42 1.28Q595.26 1.28 592.06-0.90L592.06-0.90L592.06-0.90Q588.86-3.01 588.86-5.50L588.86-5.50L588.86-5.50Q588.86-8 590.69-9.47L590.69-9.47L590.69-9.47Q592.51-10.94 595.20-10.94L595.20-10.94L595.20-10.94Q597.89-10.94 599.55-9.92L599.55-9.92L599.55-9.92Q598.72-7.81 598.72-6.40L598.72-6.40L598.72-6.40Q598.72-2.18 602.30-2.18L602.30-2.18L602.30-2.18Q603.84-2.18 604.86-3.14L604.86-3.14L604.86-3.14Q605.89-4.10 605.89-5.76L605.89-5.76L605.89-5.76Q605.89-9.02 600.38-12.48L600.38-12.48L600.38-12.48Q595.90-15.42 594.88-16.58L594.88-16.58L594.88-16.58Q593.15-18.62 593.15-21.18L593.15-21.18L593.15-21.18Q593.15-23.74 594.37-26.18L594.37-26.18L594.37-26.18Q595.58-28.61 597.82-30.34L597.82-30.34L597.82-30.34Q602.50-33.92 610.62-33.92L610.62-33.92L610.62-33.92Q614.78-33.92 617.25-32.26L617.25-32.26L617.25-32.26Q619.71-30.59 619.71-27.78L619.71-27.78L619.71-27.78Q619.71-24.96 618.02-23.36L618.02-23.36L618.02-23.36Q616.32-21.76 613.25-21.76L613.25-21.76L613.25-21.76Q611.14-21.76 610.11-22.46Z" fill="#f7c61d"></path></g></g><style>text {
  font-size: 64px;
  font-family: Arial Black;
  dominant-baseline: central;
  text-anchor: middle;
}</style></svg>